<svg width="16" height="18" viewBox="0 0 16 18" fill="none" xmlns="http://www.w3.org/2000/svg">
<path d="M1 4.625H15M6.25 8.125V13.375M9.75 8.125V13.375M1.875 4.625L2.75 15.125C2.75 15.5891 2.93437 16.0342 3.26256 16.3624C3.59075 16.6906 4.03587 16.875 4.5 16.875H11.5C11.9641 16.875 12.4092 16.6906 12.7374 16.3624C13.0656 16.0342 13.25 15.5891 13.25 15.125L14.125 4.625M5.375 4.625V2C5.375 1.76794 5.46719 1.54538 5.63128 1.38128C5.79538 1.21719 6.01794 1.125 6.25 1.125H9.75C9.98206 1.125 10.2046 1.21719 10.3687 1.38128C10.5328 1.54538 10.625 1.76794 10.625 2V4.625" stroke="#6E6E6E" stroke-width="2" stroke-linecap="round" stroke-linejoin="round"/>
<path d="M1 4.625H15M6.25 8.125V13.375M9.75 8.125V13.375M1.875 4.625L2.75 15.125C2.75 15.5891 2.93437 16.0342 3.26256 16.3624C3.59075 16.6906 4.03587 16.875 4.5 16.875H11.5C11.9641 16.875 12.4092 16.6906 12.7374 16.3624C13.0656 16.0342 13.25 15.5891 13.25 15.125L14.125 4.625M5.375 4.625V2C5.375 1.76794 5.46719 1.54538 5.63128 1.38128C5.79538 1.21719 6.01794 1.125 6.25 1.125H9.75C9.98206 1.125 10.2046 1.21719 10.3687 1.38128C10.5328 1.54538 10.625 1.76794 10.625 2V4.625" stroke="#6E6E6E" stroke-width="2" stroke-linecap="round" stroke-linejoin="round"/>
</svg>
