<svg width="29" height="29" viewBox="0 0 29 29" fill="none" xmlns="http://www.w3.org/2000/svg">
<path d="M14.5 0.839172C12.6615 0.839172 10.841 1.20129 9.14243 1.90486C7.44387 2.60842 5.90053 3.63966 4.6005 4.93968C1.975 7.56519 0.5 11.1261 0.5 14.8392C0.5 21.0272 4.518 26.2772 10.076 28.1392C10.776 28.2512 11 27.8172 11 27.4392V25.0732C7.122 25.9132 6.296 23.1972 6.296 23.1972C5.652 21.5732 4.742 21.1392 4.742 21.1392C3.468 20.2712 4.84 20.2992 4.84 20.2992C6.24 20.3972 6.982 21.7412 6.982 21.7412C8.2 23.8692 10.258 23.2392 11.056 22.9032C11.182 21.9932 11.546 21.3772 11.938 21.0272C8.83 20.6772 5.568 19.4732 5.568 14.1392C5.568 12.5852 6.1 11.3392 7.01 10.3452C6.87 9.99517 6.38 8.53917 7.15 6.64917C7.15 6.64917 8.326 6.27117 11 8.07717C12.106 7.76917 13.31 7.61517 14.5 7.61517C15.69 7.61517 16.894 7.76917 18 8.07717C20.674 6.27117 21.85 6.64917 21.85 6.64917C22.62 8.53917 22.13 9.99517 21.99 10.3452C22.9 11.3392 23.432 12.5852 23.432 14.1392C23.432 19.4872 20.156 20.6632 17.034 21.0132C17.538 21.4472 18 22.3012 18 23.6032V27.4392C18 27.8172 18.224 28.2652 18.938 28.1392C24.496 26.2632 28.5 21.0272 28.5 14.8392C28.5 13.0007 28.1379 11.1802 27.4343 9.4816C26.7307 7.78305 25.6995 6.2397 24.3995 4.93968C23.0995 3.63966 21.5561 2.60842 19.8576 1.90486C18.159 1.20129 16.3385 0.839172 14.5 0.839172Z" fill="url(#paint0_linear_587_14)"/>
<defs>
<linearGradient id="paint0_linear_587_14" x1="0.5" y1="14.5" x2="28.5" y2="14.5" gradientUnits="userSpaceOnUse">
<stop stop-color="#6AB2FF"/>
<stop offset="1" stop-color="#007BFF"/>
</linearGradient>
</defs>
</svg>
