<svg width="29" height="29" viewBox="0 0 29 29" fill="none" xmlns="http://www.w3.org/2000/svg">
<path d="M8.62 0.5H20.38C24.86 0.5 28.5 4.14 28.5 8.62V20.38C28.5 22.5336 27.6445 24.5989 26.1217 26.1217C24.5989 27.6445 22.5336 28.5 20.38 28.5H8.62C4.14 28.5 0.5 24.86 0.5 20.38V8.62C0.5 6.46644 1.3555 4.40109 2.87829 2.87829C4.40109 1.3555 6.46644 0.5 8.62 0.5ZM8.34 3.3C7.00331 3.3 5.72137 3.831 4.77618 4.77618C3.831 5.72137 3.3 7.00331 3.3 8.34V20.66C3.3 23.446 5.554 25.7 8.34 25.7H20.66C21.9967 25.7 23.2786 25.169 24.2238 24.2238C25.169 23.2786 25.7 21.9967 25.7 20.66V8.34C25.7 5.554 23.446 3.3 20.66 3.3H8.34ZM21.85 5.4C22.3141 5.4 22.7592 5.58437 23.0874 5.91256C23.4156 6.24075 23.6 6.68587 23.6 7.15C23.6 7.61413 23.4156 8.05925 23.0874 8.38744C22.7592 8.71563 22.3141 8.9 21.85 8.9C21.3859 8.9 20.9408 8.71563 20.6126 8.38744C20.2844 8.05925 20.1 7.61413 20.1 7.15C20.1 6.68587 20.2844 6.24075 20.6126 5.91256C20.9408 5.58437 21.3859 5.4 21.85 5.4ZM14.5 7.5C16.3565 7.5 18.137 8.2375 19.4497 9.55025C20.7625 10.863 21.5 12.6435 21.5 14.5C21.5 16.3565 20.7625 18.137 19.4497 19.4497C18.137 20.7625 16.3565 21.5 14.5 21.5C12.6435 21.5 10.863 20.7625 9.55025 19.4497C8.2375 18.137 7.5 16.3565 7.5 14.5C7.5 12.6435 8.2375 10.863 9.55025 9.55025C10.863 8.2375 12.6435 7.5 14.5 7.5ZM14.5 10.3C13.3861 10.3 12.3178 10.7425 11.5302 11.5302C10.7425 12.3178 10.3 13.3861 10.3 14.5C10.3 15.6139 10.7425 16.6822 11.5302 17.4698C12.3178 18.2575 13.3861 18.7 14.5 18.7C15.6139 18.7 16.6822 18.2575 17.4698 17.4698C18.2575 16.6822 18.7 15.6139 18.7 14.5C18.7 13.3861 18.2575 12.3178 17.4698 11.5302C16.6822 10.7425 15.6139 10.3 14.5 10.3Z" fill="url(#paint0_linear_587_12)"/>
<defs>
<linearGradient id="paint0_linear_587_12" x1="0.5" y1="14.5" x2="28.5" y2="14.5" gradientUnits="userSpaceOnUse">
<stop stop-color="#6AB2FF"/>
<stop offset="1" stop-color="#007BFF"/>
</linearGradient>
</defs>
</svg>
