<svg width="29" height="29" viewBox="0 0 29 29" fill="none" xmlns="http://www.w3.org/2000/svg">
<path d="M25.3889 0.5C26.214 0.5 27.0053 0.827777 27.5888 1.41122C28.1722 1.99467 28.5 2.78599 28.5 3.61111V25.3889C28.5 26.214 28.1722 27.0053 27.5888 27.5888C27.0053 28.1722 26.214 28.5 25.3889 28.5H3.61111C2.78599 28.5 1.99467 28.1722 1.41122 27.5888C0.827777 27.0053 0.5 26.214 0.5 25.3889V3.61111C0.5 2.78599 0.827777 1.99467 1.41122 1.41122C1.99467 0.827777 2.78599 0.5 3.61111 0.5H25.3889ZM24.6111 24.6111V16.3667C24.6111 15.0217 24.0768 13.7319 23.1258 12.7808C22.1748 11.8298 20.8849 11.2956 19.54 11.2956C18.2178 11.2956 16.6778 12.1044 15.9311 13.3178V11.5911H11.5911V24.6111H15.9311V16.9422C15.9311 15.7444 16.8956 14.7644 18.0933 14.7644C18.6709 14.7644 19.2248 14.9939 19.6333 15.4023C20.0417 15.8107 20.2711 16.3646 20.2711 16.9422V24.6111H24.6111ZM6.53556 9.14889C7.22865 9.14889 7.89337 8.87356 8.38346 8.38346C8.87356 7.89337 9.14889 7.22865 9.14889 6.53556C9.14889 5.08889 7.98222 3.90667 6.53556 3.90667C5.83833 3.90667 5.16966 4.18364 4.67665 4.67665C4.18364 5.16966 3.90667 5.83833 3.90667 6.53556C3.90667 7.98222 5.08889 9.14889 6.53556 9.14889ZM8.69778 24.6111V11.5911H4.38889V24.6111H8.69778Z" fill="url(#paint0_linear_587_17)"/>
<defs>
<linearGradient id="paint0_linear_587_17" x1="0.5" y1="14.5" x2="28.5" y2="14.5" gradientUnits="userSpaceOnUse">
<stop stop-color="#6AB2FF"/>
<stop offset="1" stop-color="#007BFF"/>
</linearGradient>
</defs>
</svg>
