<svg width="78" height="31" viewBox="0 0 78 31" fill="none" xmlns="http://www.w3.org/2000/svg">
<path d="M3.792 19.16C3.29067 19.16 2.80533 19.0533 2.336 18.84C1.86667 18.616 1.46667 18.3387 1.136 18.008C0.816 17.6667 0.602667 17.32 0.496 16.968C0.485333 16.904 0.474667 16.8453 0.464 16.792C0.453333 16.728 0.448 16.664 0.448 16.6C0.448 16.376 0.522667 16.2053 0.672 16.088C0.821333 15.96 0.997333 15.896 1.2 15.896C1.38133 15.896 1.52 15.944 1.616 16.04C1.72267 16.136 1.81867 16.2907 1.904 16.504C2.07467 16.8987 2.33067 17.2133 2.672 17.448C3.024 17.672 3.38133 17.784 3.744 17.784C4.032 17.784 4.29333 17.704 4.528 17.544C4.76267 17.384 4.94933 17.1333 5.088 16.792C5.184 16.5573 5.26933 16.248 5.344 15.864C5.42933 15.48 5.49867 15.0533 5.552 14.584C5.60533 14.104 5.648 13.6133 5.68 13.112C5.712 12.6107 5.728 12.1253 5.728 11.656C5.728 10.8987 5.75467 10.1467 5.808 9.4C5.86133 8.64267 5.94133 7.90133 6.048 7.176C6.06933 6.97333 6.15467 6.84 6.304 6.776C6.45333 6.70133 6.59733 6.664 6.736 6.664C6.864 6.664 6.98667 6.696 7.104 6.76C7.22133 6.824 7.312 6.91467 7.376 7.032C7.45067 7.13867 7.47733 7.272 7.456 7.432C7.41333 7.82667 7.37067 8.26933 7.328 8.76C7.296 9.24 7.26933 9.736 7.248 10.248C7.22667 10.7493 7.20533 11.2293 7.184 11.688C7.152 12.648 7.088 13.6027 6.992 14.552C6.90667 15.5013 6.71467 16.424 6.416 17.32C6.27733 17.736 6.07467 18.0827 5.808 18.36C5.552 18.6267 5.248 18.8293 4.896 18.968C4.55467 19.096 4.18667 19.16 3.792 19.16ZM10.5063 11.032C10.5169 10.808 10.5969 10.6427 10.7463 10.536C10.8956 10.4293 11.0663 10.376 11.2582 10.376C11.3756 10.376 11.4876 10.4027 11.5943 10.456C11.7116 10.4987 11.8023 10.568 11.8663 10.664C11.9409 10.76 11.9729 10.8827 11.9623 11.032C11.9409 11.4373 11.9249 11.88 11.9143 12.36C11.9143 12.84 11.9196 13.3307 11.9303 13.832C11.9409 14.3333 11.9623 14.824 11.9943 15.304C12.0263 15.784 12.0743 16.2267 12.1383 16.632C12.1916 17.0267 12.2396 17.368 12.2823 17.656C12.3356 17.944 12.3623 18.1787 12.3623 18.36C12.3623 18.5733 12.3196 18.7547 12.2343 18.904C12.1489 19.0427 11.9889 19.112 11.7543 19.112C11.6263 19.112 11.5036 19.0907 11.3863 19.048C11.2796 19.0053 11.1836 18.8987 11.0983 18.728C11.0023 18.536 10.9169 18.2373 10.8423 17.832C10.7676 17.416 10.6983 16.9413 10.6343 16.408C10.5809 15.864 10.5383 15.3093 10.5063 14.744C10.4849 14.168 10.4743 13.624 10.4743 13.112C10.4743 12.792 10.4743 12.504 10.4743 12.248C10.4849 11.9813 10.4903 11.7467 10.4903 11.544C10.5009 11.3413 10.5063 11.1707 10.5063 11.032ZM10.2983 6.936C10.2983 6.76533 10.3463 6.61067 10.4423 6.472C10.5489 6.33333 10.6876 6.22133 10.8583 6.136C11.0289 6.04 11.2049 5.992 11.3863 5.992C11.5356 5.992 11.7009 6.03467 11.8823 6.12C12.0636 6.19467 12.2183 6.312 12.3463 6.472C12.4849 6.62133 12.5543 6.808 12.5543 7.032C12.5543 7.192 12.5169 7.34667 12.4423 7.496C12.3676 7.63467 12.2609 7.74667 12.1223 7.832C11.9943 7.91733 11.8396 7.96 11.6583 7.96C11.4663 7.96 11.2636 7.91733 11.0503 7.832C10.8369 7.74667 10.6556 7.62933 10.5063 7.48C10.3676 7.32 10.2983 7.13867 10.2983 6.936ZM15.084 10.872C15.116 10.6907 15.2013 10.5573 15.34 10.472C15.4787 10.376 15.6333 10.328 15.804 10.328C16.0067 10.328 16.172 10.3867 16.3 10.504C16.428 10.6213 16.492 10.7973 16.492 11.032C16.492 11.1387 16.4707 11.32 16.428 11.576C16.3853 11.832 16.3373 12.1787 16.284 12.616C16.2413 13.0427 16.22 13.576 16.22 14.216C16.22 14.76 16.2627 15.2827 16.348 15.784C16.4333 16.2747 16.5667 16.68 16.748 17C16.9293 17.32 17.1693 17.48 17.468 17.48C17.756 17.48 18.0227 17.4 18.268 17.24C18.524 17.08 18.7533 16.8667 18.956 16.6C19.1587 16.3333 19.3347 16.04 19.484 15.72C19.644 15.3893 19.7667 15.064 19.852 14.744C19.8627 14.648 19.8627 14.4773 19.852 14.232C19.852 13.9867 19.8467 13.72 19.836 13.432C19.836 13.1333 19.8307 12.8613 19.82 12.616C19.82 12.36 19.82 12.1787 19.82 12.072C19.82 11.7307 19.8627 11.4213 19.948 11.144C20.044 10.8667 20.1773 10.648 20.348 10.488C20.5293 10.328 20.7427 10.248 20.988 10.248C21.2547 10.248 21.4413 10.3867 21.548 10.664C21.6653 10.9307 21.724 11.2347 21.724 11.576C21.724 11.8853 21.7027 12.2267 21.66 12.6C21.6173 12.9733 21.5587 13.3467 21.484 13.72C21.4093 14.0933 21.3293 14.4453 21.244 14.776C21.244 15.576 21.244 16.3653 21.244 17.144C21.244 17.9227 21.228 18.7067 21.196 19.496C21.1533 20.7333 20.8067 21.7253 20.156 22.472C19.5053 23.2293 18.588 23.608 17.404 23.608C16.9027 23.608 16.4333 23.5227 15.996 23.352C15.5587 23.1813 15.1853 22.8987 14.876 22.504C14.812 22.4187 14.7427 22.3173 14.668 22.2C14.604 22.0827 14.572 21.9707 14.572 21.864C14.572 21.7787 14.604 21.688 14.668 21.592C14.7427 21.5067 14.8333 21.432 14.94 21.368C15.0573 21.304 15.1747 21.272 15.292 21.272C15.4733 21.272 15.6333 21.3413 15.772 21.48C15.9107 21.6187 16.0653 21.752 16.236 21.88C16.3853 21.9973 16.556 22.088 16.748 22.152C16.94 22.216 17.18 22.248 17.468 22.248C18.0653 22.248 18.524 22.1093 18.844 21.832C19.164 21.5653 19.388 21.2027 19.516 20.744C19.6547 20.2853 19.7347 19.768 19.756 19.192C19.788 18.616 19.804 18.024 19.804 17.416C19.4093 17.9707 19.004 18.3547 18.588 18.568C18.1827 18.7707 17.7827 18.872 17.388 18.872C16.876 18.872 16.4493 18.7387 16.108 18.472C15.7667 18.2053 15.4947 17.8533 15.292 17.416C15.1 16.9787 14.9613 16.4987 14.876 15.976C14.7907 15.4533 14.748 14.9413 14.748 14.44C14.748 13.7253 14.7853 13.0747 14.86 12.488C14.9347 11.9013 15.0093 11.3627 15.084 10.872ZM24.6521 15.992L24.2361 14.856C25.3881 14.696 26.2895 14.4827 26.9401 14.216C27.6015 13.9493 28.0655 13.6667 28.3321 13.368C28.6095 13.0587 28.7481 12.7707 28.7481 12.504C28.7481 12.2053 28.6468 11.9813 28.4441 11.832C28.2521 11.672 28.0068 11.592 27.7081 11.592C27.4415 11.592 27.1535 11.6613 26.8441 11.8C26.5455 11.928 26.2628 12.1253 25.9961 12.392C25.7401 12.6587 25.5268 12.9893 25.3561 13.384C25.1961 13.7787 25.1161 14.2427 25.1161 14.776C25.1161 15.4907 25.2388 16.088 25.4841 16.568C25.7295 17.0373 26.0441 17.3893 26.4281 17.624C26.8228 17.8587 27.2335 17.976 27.6601 17.976C28.0015 17.976 28.3268 17.912 28.6361 17.784C28.9455 17.656 29.2281 17.4587 29.4841 17.192C29.6015 17.064 29.7241 16.952 29.8521 16.856C29.9801 16.7493 30.1188 16.696 30.2681 16.696C30.3961 16.696 30.5028 16.7227 30.5881 16.776C30.6841 16.8293 30.7535 16.904 30.7961 17C30.8495 17.0853 30.8761 17.1867 30.8761 17.304C30.8761 17.4107 30.8601 17.5067 30.8281 17.592C30.8068 17.6773 30.7588 17.7627 30.6841 17.848C30.4281 18.168 30.1295 18.44 29.7881 18.664C29.4575 18.8773 29.1055 19.0373 28.7321 19.144C28.3695 19.2507 28.0015 19.304 27.6281 19.304C27.1161 19.304 26.6201 19.208 26.1401 19.016C25.6708 18.824 25.2441 18.5413 24.8601 18.168C24.4868 17.784 24.1881 17.3147 23.9641 16.76C23.7401 16.1947 23.6281 15.5493 23.6281 14.824C23.6281 14.0667 23.7561 13.4107 24.0121 12.856C24.2681 12.2907 24.5988 11.8213 25.0041 11.448C25.4201 11.064 25.8735 10.7813 26.3641 10.6C26.8548 10.408 27.3401 10.312 27.8201 10.312C28.2681 10.312 28.6788 10.392 29.0521 10.552C29.4255 10.712 29.7188 10.952 29.9321 11.272C30.1561 11.592 30.2681 11.992 30.2681 12.472C30.2681 12.8027 30.1721 13.1493 29.9801 13.512C29.7988 13.864 29.4895 14.2053 29.0521 14.536C28.6255 14.856 28.0495 15.144 27.3241 15.4C26.6095 15.656 25.7188 15.8533 24.6521 15.992ZM36.0623 10.264C36.3076 10.264 36.5529 10.2907 36.7983 10.344C37.0436 10.3867 37.2729 10.456 37.4863 10.552C37.6996 10.6373 37.8809 10.7493 38.0303 10.888C38.5209 11.2827 38.8783 11.7947 39.1023 12.424C39.3369 13.0533 39.4543 13.7147 39.4543 14.408C39.4543 14.9947 39.3796 15.5653 39.2303 16.12C39.0809 16.664 38.8623 17.16 38.5743 17.608C38.2863 18.0453 37.9343 18.3973 37.5183 18.664C37.1023 18.92 36.6276 19.048 36.0943 19.048C35.5503 19.048 35.0436 18.9307 34.5743 18.696C34.1156 18.4613 33.7103 18.1413 33.3583 17.736C33.0063 17.3307 32.7343 16.8667 32.5423 16.344C32.3503 15.8107 32.2543 15.2507 32.2543 14.664C32.2543 14.1093 32.3343 13.5707 32.4943 13.048C32.6649 12.5253 32.9103 12.056 33.2303 11.64C33.5609 11.2133 33.9609 10.8773 34.4303 10.632C34.9103 10.3867 35.4543 10.264 36.0623 10.264ZM33.7263 14.552C33.7263 15.0853 33.8169 15.592 33.9983 16.072C34.1796 16.5413 34.4409 16.9253 34.7823 17.224C35.1343 17.512 35.5556 17.656 36.0463 17.656C36.3876 17.656 36.6809 17.5653 36.9263 17.384C37.1716 17.192 37.3743 16.9413 37.5343 16.632C37.6943 16.312 37.8116 15.9653 37.8863 15.592C37.9609 15.2187 37.9983 14.8507 37.9983 14.488C37.9983 13.8373 37.8916 13.288 37.6783 12.84C37.4756 12.3813 37.1983 12.0293 36.8463 11.784C36.7076 11.7413 36.5689 11.7147 36.4303 11.704C36.3023 11.6827 36.1689 11.672 36.0303 11.672C35.6676 11.672 35.3423 11.752 35.0543 11.912C34.7663 12.0613 34.5209 12.2747 34.3183 12.552C34.1263 12.8187 33.9769 13.1227 33.8703 13.464C33.7743 13.8053 33.7263 14.168 33.7263 14.552ZM41.9133 10.632C41.9453 10.4507 42.0306 10.3227 42.1693 10.248C42.3079 10.1627 42.4573 10.12 42.6173 10.12C42.8093 10.12 42.9746 10.184 43.1133 10.312C43.2626 10.44 43.3373 10.5893 43.3373 10.76C43.3373 10.8133 43.3266 10.9253 43.3053 11.096C43.2839 11.2667 43.2626 11.4533 43.2413 11.656C43.2199 11.8587 43.2039 12.0453 43.1933 12.216C43.4066 11.832 43.6466 11.4907 43.9133 11.192C44.1906 10.8933 44.4999 10.6587 44.8413 10.488C45.1826 10.3173 45.5559 10.232 45.9613 10.232C46.9106 10.232 47.6146 10.5733 48.0733 11.256C48.5426 11.928 48.7773 12.8187 48.7773 13.928C48.7773 14.472 48.7399 15.0053 48.6653 15.528C48.5906 16.04 48.5159 16.5467 48.4413 17.048C48.3666 17.5387 48.3293 18.0293 48.3293 18.52C48.3293 18.7227 48.2546 18.8827 48.1053 19C47.9666 19.1173 47.7959 19.176 47.5933 19.176C47.3906 19.176 47.2146 19.1173 47.0653 19C46.9266 18.8827 46.8573 18.7173 46.8573 18.504C46.8573 17.9813 46.8946 17.48 46.9693 17C47.0546 16.52 47.1346 16.0347 47.2093 15.544C47.2839 15.0533 47.3213 14.5413 47.3213 14.008C47.3213 13.368 47.2519 12.8773 47.1133 12.536C46.9853 12.1947 46.8039 11.96 46.5693 11.832C46.3453 11.6933 46.0893 11.624 45.8013 11.624C45.4386 11.624 45.1133 11.752 44.8253 12.008C44.5373 12.2533 44.2813 12.568 44.0573 12.952C43.8439 13.3253 43.6626 13.72 43.5133 14.136C43.3746 14.552 43.2626 14.92 43.1773 15.24C43.1773 15.8267 43.1719 16.4027 43.1613 16.968C43.1506 17.5227 43.1293 18.0453 43.0973 18.536C43.0866 18.7173 43.0119 18.872 42.8733 19C42.7346 19.128 42.5533 19.192 42.3293 19.192C42.1159 19.192 41.9506 19.128 41.8333 19C41.7159 18.8827 41.6359 18.7227 41.5933 18.52C41.5506 18.3173 41.5293 18.0987 41.5293 17.864C41.5293 17.4907 41.5453 17.096 41.5773 16.68C41.6093 16.264 41.6679 15.8587 41.7533 15.464C41.7426 14.856 41.7373 14.312 41.7373 13.832C41.7373 13.352 41.7373 12.9253 41.7373 12.552C41.7479 12.168 41.7639 11.8213 41.7853 11.512C41.8173 11.2027 41.8599 10.9093 41.9133 10.632ZM50.5568 6.008C50.4501 5.816 50.4234 5.64 50.4768 5.48C50.5408 5.32 50.6528 5.192 50.8128 5.096C50.9728 5 51.1381 4.95733 51.3088 4.968C51.4901 4.97867 51.6448 5.05867 51.7728 5.208C52.1034 5.60267 52.2901 6.024 52.3328 6.472C52.3754 6.92 52.3008 7.38933 52.1088 7.88C51.9274 8.36 51.6501 8.85067 51.2768 9.352C51.1274 9.55467 50.9621 9.66667 50.7808 9.688C50.6101 9.70933 50.4554 9.672 50.3168 9.576C50.1888 9.46933 50.1034 9.336 50.0608 9.176C50.0181 9.00533 50.0554 8.84 50.1728 8.68C50.5888 8.104 50.8128 7.61333 50.8448 7.208C50.8874 6.80267 50.7914 6.40267 50.5568 6.008ZM58.2315 11.464C58.3062 11.5493 58.3542 11.6347 58.3755 11.72C58.3968 11.8053 58.4075 11.8853 58.4075 11.96C58.4075 12.088 58.3702 12.2053 58.2955 12.312C58.2315 12.408 58.1462 12.488 58.0395 12.552C57.9328 12.6053 57.8208 12.632 57.7035 12.632C57.5968 12.632 57.5008 12.6053 57.4155 12.552C57.3302 12.4987 57.2502 12.4347 57.1755 12.36C57.0688 12.2 56.8875 12.04 56.6315 11.88C56.3862 11.72 56.0768 11.64 55.7035 11.64C55.3515 11.64 55.0475 11.7253 54.7915 11.896C54.5355 12.0667 54.4075 12.2907 54.4075 12.568C54.4075 12.8987 54.5142 13.1493 54.7275 13.32C54.9515 13.4907 55.3088 13.6987 55.7995 13.944C56.1728 14.1253 56.5302 14.344 56.8715 14.6C57.2235 14.8453 57.5115 15.1493 57.7355 15.512C57.9702 15.864 58.0875 16.2907 58.0875 16.792C58.0875 17.2187 57.9808 17.608 57.7675 17.96C57.5648 18.312 57.2715 18.5947 56.8875 18.808C56.5142 19.0213 56.0662 19.128 55.5435 19.128C54.9568 19.128 54.3755 19 53.7995 18.744C53.2235 18.4773 52.7328 18.168 52.3275 17.816C52.2528 17.752 52.1995 17.6827 52.1675 17.608C52.1355 17.5227 52.1195 17.4427 52.1195 17.368C52.1195 17.176 52.1888 17.0053 52.3275 16.856C52.4662 16.696 52.6262 16.616 52.8075 16.616C52.8608 16.616 52.9142 16.6267 52.9675 16.648C53.0315 16.6693 53.1008 16.7067 53.1755 16.76C53.5168 17.0267 53.8848 17.2667 54.2795 17.48C54.6848 17.6933 55.0688 17.8 55.4315 17.8C55.8368 17.8 56.1302 17.7093 56.3115 17.528C56.5035 17.336 56.5995 17.1227 56.5995 16.888C56.5995 16.504 56.4502 16.1733 56.1515 15.896C55.8635 15.608 55.4848 15.3627 55.0155 15.16C54.5248 14.936 54.1195 14.696 53.7995 14.44C53.4902 14.184 53.2608 13.9067 53.1115 13.608C52.9728 13.2987 52.9035 12.9627 52.9035 12.6C52.9035 12.152 53.0315 11.7573 53.2875 11.416C53.5542 11.0747 53.9008 10.808 54.3275 10.616C54.7542 10.424 55.2128 10.328 55.7035 10.328C56.2048 10.328 56.6848 10.4293 57.1435 10.632C57.6022 10.824 57.9648 11.1013 58.2315 11.464Z" fill="#E1E1E1"/>
<rect x="51.5" y="18.5" width="26" height="12" rx="6" fill="#6E6E6E"/>
<rect x="51.5" y="18.5" width="26" height="12" rx="6" fill="#252525"/>
<rect x="51.5" y="18.5" width="26" height="12" rx="6" fill="#252525"/>
<rect x="51.5" y="18.5" width="26" height="12" rx="6" stroke="#E1E1E1"/>
<path d="M59.02 26.994C58.976 26.994 58.934 26.984 58.894 26.964C58.854 26.94 58.82 26.91 58.792 26.874C58.768 26.834 58.756 26.794 58.756 26.754C58.756 26.294 58.76 25.84 58.768 25.392C58.776 24.944 58.786 24.498 58.798 24.054C58.814 23.606 58.832 23.158 58.852 22.71C58.856 22.622 58.886 22.558 58.942 22.518C58.998 22.474 59.06 22.452 59.128 22.452C59.176 22.452 59.22 22.462 59.26 22.482C59.304 22.498 59.338 22.526 59.362 22.566C59.39 22.602 59.402 22.65 59.398 22.71C59.378 23.158 59.36 23.606 59.344 24.054C59.332 24.498 59.322 24.944 59.314 25.392C59.306 25.84 59.302 26.294 59.302 26.754C59.302 26.786 59.294 26.816 59.278 26.844C59.262 26.872 59.24 26.898 59.212 26.922C59.184 26.942 59.152 26.96 59.116 26.976C59.084 26.988 59.052 26.994 59.02 26.994ZM59.398 27.168C59.286 27.168 59.18 27.164 59.08 27.156C58.984 27.152 58.898 27.142 58.822 27.126C58.73 27.106 58.664 27.074 58.624 27.03C58.584 26.986 58.564 26.932 58.564 26.868C58.564 26.8 58.586 26.742 58.63 26.694C58.678 26.646 58.738 26.624 58.81 26.628C58.914 26.636 59.018 26.644 59.122 26.652C59.226 26.656 59.328 26.658 59.428 26.658C59.668 26.658 59.892 26.638 60.1 26.598C60.308 26.554 60.49 26.488 60.646 26.4C60.802 26.308 60.924 26.194 61.012 26.058C61.1 25.922 61.144 25.76 61.144 25.572C61.144 25.368 61.066 25.202 60.91 25.074C60.754 24.946 60.518 24.882 60.202 24.882C60.07 24.882 59.916 24.896 59.74 24.924C59.568 24.952 59.386 24.986 59.194 25.026C59.138 25.034 59.084 25.03 59.032 25.014C58.98 24.998 58.938 24.97 58.906 24.93C58.874 24.89 58.858 24.838 58.858 24.774C58.858 24.738 58.866 24.7 58.882 24.66C58.902 24.62 58.93 24.586 58.966 24.558C59.006 24.526 59.058 24.506 59.122 24.498C59.63 24.438 60.038 24.356 60.346 24.252C60.654 24.144 60.876 24.014 61.012 23.862C61.152 23.71 61.222 23.542 61.222 23.358C61.222 23.238 61.178 23.136 61.09 23.052C61.006 22.968 60.886 22.904 60.73 22.86C60.578 22.816 60.398 22.794 60.19 22.794C60.01 22.794 59.814 22.814 59.602 22.854C59.39 22.89 59.184 22.93 58.984 22.974C58.896 22.99 58.818 22.974 58.75 22.926C58.686 22.874 58.654 22.806 58.654 22.722C58.654 22.646 58.69 22.586 58.762 22.542C58.834 22.494 58.912 22.462 58.996 22.446C59.196 22.41 59.398 22.376 59.602 22.344C59.806 22.308 60.008 22.29 60.208 22.29C60.476 22.29 60.728 22.33 60.964 22.41C61.204 22.49 61.398 22.608 61.546 22.764C61.698 22.916 61.774 23.108 61.774 23.34C61.774 23.492 61.74 23.644 61.672 23.796C61.608 23.948 61.51 24.088 61.378 24.216C61.246 24.344 61.08 24.45 60.88 24.534C61.044 24.586 61.186 24.66 61.306 24.756C61.43 24.848 61.526 24.964 61.594 25.104C61.666 25.24 61.702 25.406 61.702 25.602C61.702 25.898 61.632 26.148 61.492 26.352C61.352 26.552 61.168 26.712 60.94 26.832C60.716 26.952 60.468 27.038 60.196 27.09C59.928 27.142 59.662 27.168 59.398 27.168ZM62.8168 22.32C62.8248 22.24 62.8548 22.178 62.9068 22.134C62.9588 22.09 63.0228 22.068 63.0988 22.068C63.1708 22.068 63.2248 22.082 63.2608 22.11C63.3008 22.138 63.3268 22.178 63.3388 22.23C63.3548 22.278 63.3608 22.334 63.3568 22.398C63.3488 22.51 63.3308 22.688 63.3028 22.932C63.2788 23.176 63.2508 23.512 63.2188 23.94C63.1908 24.368 63.1668 24.916 63.1468 25.584C63.1428 25.796 63.1368 26.004 63.1288 26.208C63.1208 26.408 63.1128 26.608 63.1048 26.808C63.1048 26.896 63.0788 26.96 63.0268 27C62.9748 27.04 62.9088 27.06 62.8288 27.06C62.7528 27.06 62.6868 27.04 62.6308 27C62.5788 26.96 62.5548 26.896 62.5588 26.808C62.5708 26.432 62.5848 26.054 62.6008 25.674C62.6168 25.294 62.6348 24.916 62.6548 24.54C62.6748 24.164 62.6968 23.79 62.7208 23.418C62.7488 23.046 62.7808 22.68 62.8168 22.32ZM64.0015 25.524C64.0015 25.308 64.0335 25.094 64.0975 24.882C64.1615 24.67 64.2555 24.478 64.3795 24.306C64.5075 24.134 64.6615 23.996 64.8415 23.892C65.0215 23.788 65.2255 23.736 65.4535 23.736C65.7415 23.736 65.9835 23.808 66.1795 23.952C66.3795 24.096 66.5295 24.288 66.6295 24.528C66.7335 24.764 66.7855 25.024 66.7855 25.308C66.7855 25.544 66.7495 25.768 66.6775 25.98C66.6055 26.188 66.5055 26.374 66.3775 26.538C66.2495 26.698 66.0975 26.824 65.9215 26.916C65.7455 27.008 65.5515 27.054 65.3395 27.054C65.0355 27.054 64.7835 26.982 64.5835 26.838C64.3875 26.694 64.2415 26.506 64.1455 26.274C64.0495 26.042 64.0015 25.792 64.0015 25.524ZM64.5595 25.53C64.5595 25.746 64.5955 25.93 64.6675 26.082C64.7395 26.234 64.8335 26.35 64.9495 26.43C65.0655 26.51 65.1855 26.55 65.3095 26.55C65.4695 26.55 65.6175 26.496 65.7535 26.388C65.8935 26.28 66.0075 26.136 66.0955 25.956C66.1835 25.776 66.2275 25.58 66.2275 25.368C66.2275 25.168 66.1995 24.984 66.1435 24.816C66.0915 24.644 66.0095 24.506 65.8975 24.402C65.7855 24.298 65.6455 24.246 65.4775 24.246C65.3095 24.246 65.1555 24.304 65.0155 24.42C64.8795 24.536 64.7695 24.692 64.6855 24.888C64.6015 25.08 64.5595 25.294 64.5595 25.53ZM67.3699 25.548C67.3699 25.3 67.4139 25.066 67.5019 24.846C67.5899 24.622 67.7099 24.426 67.8619 24.258C68.0139 24.086 68.1879 23.952 68.3839 23.856C68.5839 23.756 68.7919 23.706 69.0079 23.706C69.1079 23.706 69.2059 23.718 69.3019 23.742C69.3979 23.762 69.4919 23.798 69.5839 23.85C69.6039 23.794 69.6359 23.758 69.6799 23.742C69.7239 23.722 69.7659 23.712 69.8059 23.712C69.8859 23.712 69.9499 23.73 69.9979 23.766C70.0499 23.798 70.0759 23.854 70.0759 23.934V24.15C70.0959 24.178 70.1099 24.206 70.1179 24.234C70.1259 24.258 70.1299 24.286 70.1299 24.318C70.1299 24.382 70.1099 24.438 70.0699 24.486V24.648C70.0699 24.8 70.0699 24.954 70.0699 25.11C70.0739 25.262 70.0759 25.42 70.0759 25.584C70.0759 25.8 70.0699 26.018 70.0579 26.238C70.0459 26.458 70.0299 26.676 70.0099 26.892C69.9779 27.244 69.9099 27.554 69.8059 27.822C69.7019 28.09 69.5619 28.298 69.3859 28.446C69.2099 28.598 68.9979 28.674 68.7499 28.674C68.6419 28.674 68.5259 28.656 68.4019 28.62C68.2779 28.588 68.1479 28.536 68.0119 28.464C67.8759 28.396 67.7359 28.308 67.5919 28.2C67.5559 28.172 67.5259 28.14 67.5019 28.104C67.4819 28.068 67.4719 28.03 67.4719 27.99C67.4719 27.95 67.4819 27.91 67.5019 27.87C67.5219 27.83 67.5499 27.794 67.5859 27.762C67.6219 27.734 67.6659 27.72 67.7179 27.72C67.7579 27.72 67.7999 27.728 67.8439 27.744C67.8919 27.764 67.9359 27.79 67.9759 27.822C68.0519 27.874 68.1319 27.926 68.2159 27.978C68.3039 28.034 68.3919 28.078 68.4799 28.11C68.5719 28.146 68.6619 28.164 68.7499 28.164C68.8859 28.164 68.9979 28.116 69.0859 28.02C69.1739 27.924 69.2439 27.804 69.2959 27.66C69.3519 27.516 69.3919 27.372 69.4159 27.228C69.4359 27.108 69.4519 27.01 69.4639 26.934C69.4759 26.854 69.4859 26.782 69.4939 26.718C69.5019 26.65 69.5099 26.574 69.5179 26.49C69.4139 26.678 69.2859 26.814 69.1339 26.898C68.9859 26.982 68.8239 27.024 68.6479 27.024C68.3999 27.024 68.1799 26.958 67.9879 26.826C67.7959 26.69 67.6439 26.51 67.5319 26.286C67.4239 26.062 67.3699 25.816 67.3699 25.548ZM68.6719 26.52C68.8199 26.52 68.9419 26.476 69.0379 26.388C69.1379 26.3 69.2179 26.174 69.2779 26.01C69.3419 25.842 69.3939 25.644 69.4339 25.416C69.4419 25.356 69.4499 25.274 69.4579 25.17C69.4659 25.066 69.4719 24.958 69.4759 24.846C69.4839 24.734 69.4899 24.636 69.4939 24.552C69.4979 24.464 69.4999 24.408 69.4999 24.384C69.4239 24.324 69.3399 24.28 69.2479 24.252C69.1559 24.224 69.0759 24.21 69.0079 24.21C68.8599 24.21 68.7199 24.246 68.5879 24.318C68.4599 24.39 68.3459 24.49 68.2459 24.618C68.1459 24.746 68.0679 24.892 68.0119 25.056C67.9559 25.22 67.9279 25.392 67.9279 25.572C67.9279 25.752 67.9619 25.914 68.0299 26.058C68.0979 26.202 68.1879 26.316 68.2999 26.4C68.4159 26.48 68.5399 26.52 68.6719 26.52Z" fill="#E1E1E1"/>
</svg>
